<svg width="6" height="6" viewBox="0 0 6 6" fill="none" xmlns="http://www.w3.org/2000/svg">
<path d="M4.15249 5.00001C4.48749 5.00251 4.80999 4.87751 5.05749 4.65251C5.87499 3.9375 5.43749 2.5025 4.35999 2.3675C3.97499 0.0324942 0.60748 0.917496 1.40498 3.14M1.81998 3.2425C1.68748 3.175 1.53998 3.14 1.39248 3.1425C0.227479 3.225 0.229979 4.92001 1.39248 5.00251M3.95499 2.4725C4.08499 2.4075 4.22499 2.3725 4.36999 2.37M2.30748 4.79001H2.55748V5.37251C2.55748 5.45751 2.66498 5.50001 2.71998 5.43501L3.33249 4.73751C3.40749 4.65251 3.37499 4.58251 3.26249 4.58251H3.01249V4C3.01249 3.915 2.90499 3.8725 2.84998 3.9375L2.23748 4.63501C2.16248 4.72001 2.19498 4.79001 2.30748 4.79001Z" stroke="white" stroke-width="0.600001" stroke-miterlimit="10" stroke-linecap="round" stroke-linejoin="round"/>
</svg>
